<svg width="98" height="20" viewBox="0 0 98 20" fill="none" xmlns="http://www.w3.org/2000/svg">
<path d="M22.139 0.0459994V19H17.522V7.633L13.283 19H9.557L5.291 7.606V19H0.674V0.0459994H6.128L11.447 13.168L16.712 0.0459994H22.139ZM40.3362 3.934V19H35.7192V16.948C35.2512 17.614 34.6122 18.154 33.8022 18.568C33.0102 18.964 32.1282 19.162 31.1562 19.162C30.0042 19.162 28.9872 18.91 28.1052 18.406C27.2232 17.884 26.5392 17.137 26.0532 16.165C25.5672 15.193 25.3242 14.05 25.3242 12.736V3.934H29.9142V12.115C29.9142 13.123 30.1752 13.906 30.6972 14.464C31.2192 15.022 31.9212 15.301 32.8032 15.301C33.7032 15.301 34.4142 15.022 34.9362 14.464C35.4582 13.906 35.7192 13.123 35.7192 12.115V3.934H40.3362ZM49.7815 19.216C48.4675 19.216 47.2975 18.991 46.2715 18.541C45.2455 18.091 44.4355 17.479 43.8415 16.705C43.2475 15.913 42.9145 15.031 42.8425 14.059H47.4055C47.4595 14.581 47.7025 15.004 48.1345 15.328C48.5665 15.652 49.0975 15.814 49.7275 15.814C50.3035 15.814 50.7445 15.706 51.0505 15.49C51.3745 15.256 51.5365 14.959 51.5365 14.599C51.5365 14.167 51.3115 13.852 50.8615 13.654C50.4115 13.438 49.6825 13.204 48.6745 12.952C47.5945 12.7 46.6945 12.439 45.9745 12.169C45.2545 11.881 44.6335 11.44 44.1115 10.846C43.5895 10.234 43.3285 9.415 43.3285 8.389C43.3285 7.525 43.5625 6.742 44.0305 6.04C44.5165 5.32 45.2185 4.753 46.1365 4.339C47.0725 3.925 48.1795 3.718 49.4575 3.718C51.3475 3.718 52.8325 4.186 53.9125 5.122C55.0105 6.058 55.6405 7.3 55.8025 8.848H51.5365C51.4645 8.326 51.2305 7.912 50.8345 7.606C50.4565 7.3 49.9525 7.147 49.3225 7.147C48.7825 7.147 48.3685 7.255 48.0805 7.471C47.7925 7.669 47.6485 7.948 47.6485 8.308C47.6485 8.74 47.8735 9.064 48.3235 9.28C48.7915 9.496 49.5115 9.712 50.4835 9.928C51.5995 10.216 52.5085 10.504 53.2105 10.792C53.9125 11.062 54.5245 11.512 55.0465 12.142C55.5865 12.754 55.8655 13.582 55.8835 14.626C55.8835 15.508 55.6315 16.3 55.1275 17.002C54.6415 17.686 53.9305 18.226 52.9945 18.622C52.0765 19.018 51.0055 19.216 49.7815 19.216ZM72.9102 11.224C72.9102 11.656 72.8832 12.106 72.8292 12.574H62.3802C62.4522 13.51 62.7492 14.23 63.2712 14.734C63.8112 15.22 64.4682 15.463 65.2422 15.463C66.3942 15.463 67.1952 14.977 67.6452 14.005H72.5592C72.3072 14.995 71.8482 15.886 71.1822 16.678C70.5342 17.47 69.7152 18.091 68.7252 18.541C67.7352 18.991 66.6282 19.216 65.4042 19.216C63.9282 19.216 62.6142 18.901 61.4622 18.271C60.3102 17.641 59.4102 16.741 58.7622 15.571C58.1142 14.401 57.7902 13.033 57.7902 11.467C57.7902 9.901 58.1052 8.533 58.7352 7.363C59.3832 6.193 60.2832 5.293 61.4352 4.663C62.5872 4.033 63.9102 3.718 65.4042 3.718C66.8622 3.718 68.1582 4.024 69.2922 4.636C70.4262 5.248 71.3082 6.121 71.9382 7.255C72.5862 8.389 72.9102 9.712 72.9102 11.224ZM68.1852 10.009C68.1852 9.217 67.9152 8.587 67.3752 8.119C66.8352 7.651 66.1602 7.417 65.3502 7.417C64.5762 7.417 63.9192 7.642 63.3792 8.092C62.8572 8.542 62.5332 9.181 62.4072 10.009H68.1852ZM79.9629 0.0459994V19H75.3459V0.0459994H79.9629ZM82.3908 11.467C82.3908 9.901 82.7058 8.533 83.3358 7.363C83.9838 6.193 84.8748 5.293 86.0088 4.663C87.1608 4.033 88.4748 3.718 89.9508 3.718C91.8408 3.718 93.4158 4.213 94.6758 5.203C95.9538 6.193 96.7908 7.588 97.1868 9.388H92.2728C91.8588 8.236 91.0578 7.66 89.8698 7.66C89.0238 7.66 88.3488 7.993 87.8448 8.659C87.3408 9.307 87.0888 10.243 87.0888 11.467C87.0888 12.691 87.3408 13.636 87.8448 14.302C88.3488 14.95 89.0238 15.274 89.8698 15.274C91.0578 15.274 91.8588 14.698 92.2728 13.546H97.1868C96.7908 15.31 95.9538 16.696 94.6758 17.704C93.3978 18.712 91.8228 19.216 89.9508 19.216C88.4748 19.216 87.1608 18.901 86.0088 18.271C84.8748 17.641 83.9838 16.741 83.3358 15.571C82.7058 14.401 82.3908 13.033 82.3908 11.467Z" fill="white"/>
</svg>
