<svg width="38" height="38" viewBox="0 0 38 38" fill="none" xmlns="http://www.w3.org/2000/svg">
<g clip-path="url(#clip0_19_67)">
<path fill-rule="evenodd" clip-rule="evenodd" d="M21.0356 2.31007C21.0356 1.18577 20.1242 0.274353 18.9999 0.274353C17.8756 0.274353 16.9642 1.18577 16.9642 2.31007V35.6902C16.9642 36.8144 17.8756 37.7259 18.9999 37.7259C20.1242 37.7259 21.0356 36.8144 21.0356 35.6902V2.31007ZM10.857 6.6936C11.9813 6.6936 12.8928 7.60503 12.8928 8.72931V29.2709C12.8928 30.3954 11.9813 31.3066 10.857 31.3066C9.73275 31.3066 8.82132 30.3954 8.82132 29.2709V8.72931C8.82132 7.60503 9.73275 6.6936 10.857 6.6936ZM2.71418 13.1129C3.83847 13.1129 4.7499 14.0243 4.7499 15.1486V22.8517C4.7499 23.976 3.83847 24.8874 2.71418 24.8874C1.58989 24.8874 0.678467 23.976 0.678467 22.8517V15.1486C0.678467 14.0243 1.58989 13.1129 2.71418 13.1129ZM27.1428 6.6936C28.267 6.6936 29.1785 7.60503 29.1785 8.72931V29.2709C29.1785 30.3954 28.267 31.3066 27.1428 31.3066C26.0185 31.3066 25.107 30.3954 25.107 29.2709V8.72931C25.107 7.60503 26.0185 6.6936 27.1428 6.6936ZM37.3213 15.1486C37.3213 14.0243 36.4099 13.1129 35.2856 13.1129C34.1614 13.1129 33.2499 14.0243 33.2499 15.1486V22.8517C33.2499 23.976 34.1614 24.8874 35.2856 24.8874C36.4099 24.8874 37.3213 23.976 37.3213 22.8517V15.1486Z" fill="white"/>
</g>
<defs>
<clipPath id="clip0_19_67">
<rect width="38" height="38" fill="white"/>
</clipPath>
</defs>
</svg>
