<svg width="38" height="38" viewBox="0 0 38 38" fill="none" xmlns="http://www.w3.org/2000/svg">
<g clip-path="url(#clip0_19_66)">
<path fill-rule="evenodd" clip-rule="evenodd" d="M14.0694 0.679222C14.9919 0.657277 15.8947 0.949372 16.6297 1.50798C17.3699 2.07054 17.8953 2.86946 18.1185 3.77196L18.7025 6.10779H33.9286C35.0083 6.10779 36.0441 6.53676 36.8076 7.30029C37.5711 8.06384 38 9.09942 38 10.1792V33.2505C38 34.3306 37.5711 35.3661 36.8076 36.1296C36.0441 36.8931 35.0083 37.322 33.9286 37.322H4.07143C2.9916 37.322 1.95603 36.8931 1.19249 36.1296C0.428952 35.3661 0 34.3306 0 33.2505V4.75065C0 3.67085 0.428952 2.63526 1.19249 1.87172C1.95603 1.10818 2.99163 0.679222 4.07143 0.679222H14.0694ZM25.7295 12.1597C25.3354 12.0822 24.9287 12.0963 24.5409 12.2007L24.5258 12.2048L15.103 14.8196C14.5522 14.9703 14.0654 15.2966 13.7167 15.749C13.3658 16.2042 13.174 16.762 13.1707 17.3368L13.1707 17.3487L13.172 23.7465C13.1402 23.7458 13.1083 23.7454 13.0762 23.7454C10.7743 23.7454 8.90823 25.6115 8.90823 27.9134C8.90823 30.2154 10.7743 32.0815 13.0762 32.0815C15.3776 32.0815 17.2433 30.2162 17.2442 27.9151L17.2443 27.8944L17.2425 18.9762L23.7774 17.161L23.7782 20.6968C23.7471 20.6961 23.7159 20.6958 23.6846 20.6958C21.3827 20.6958 19.5166 22.5618 19.5166 24.8637C19.5166 27.1657 21.3827 29.0317 23.6846 29.0317C25.9865 29.0317 27.8526 27.1657 27.8526 24.8637C27.8526 24.8183 27.8518 24.773 27.8505 24.7279L27.8483 14.7207C27.8461 14.319 27.7517 13.9232 27.5723 13.5638C27.3931 13.2043 27.1337 12.8908 26.8142 12.6474C26.4947 12.404 26.1236 12.2371 25.7295 12.1597Z" fill="white"/>
</g>
<defs>
<clipPath id="clip0_19_66">
<rect width="38" height="38" fill="white"/>
</clipPath>
</defs>
</svg>
